<svg width="15" height="17" viewBox="0 0 15 17" fill="none" xmlns="http://www.w3.org/2000/svg">
<path d="M8.36395 1C8.36395 0.447715 7.91624 -2.41411e-08 7.36395 0C6.81167 2.41411e-08 6.36395 0.447715 6.36395 1L7.36395 1L8.36395 1ZM6.65685 16.7071C7.04737 17.0976 7.68054 17.0976 8.07106 16.7071L14.435 10.3431C14.8255 9.95262 14.8255 9.31946 14.435 8.92893C14.0445 8.53841 13.4113 8.53841 13.0208 8.92893L7.36395 14.5858L1.7071 8.92893C1.31657 8.53841 0.68341 8.53841 0.292885 8.92893C-0.0976392 9.31946 -0.0976392 9.95262 0.292885 10.3431L6.65685 16.7071ZM7.36395 1L6.36395 1L6.36395 16L7.36395 16L8.36395 16L8.36395 1L7.36395 1Z" fill="white"/>
</svg>
