<svg width="20" height="28" viewBox="0 0 20 28" fill="none" xmlns="http://www.w3.org/2000/svg">
<path d="M0.906006 9.96616C0.906006 13.0972 4.45324 19.0095 7.10859 23.2924C8.34131 25.2803 8.95758 26.2744 9.96616 26.2744C10.9747 26.2744 11.591 25.2803 12.8237 23.2924C15.479 19.0095 19.0263 13.0972 19.0263 9.96616C19.0263 4.96238 14.9699 0.906006 9.96616 0.906006C4.96242 0.906006 0.906006 4.96238 0.906006 9.96616Z" stroke="#B2A074" stroke-width="1.81203" stroke-linecap="round" stroke-linejoin="round"/>
<path d="M5.43609 9.96615C5.43609 12.468 7.46429 14.4962 9.96616 14.4962C12.468 14.4962 14.4962 12.468 14.4962 9.96615C14.4962 7.46426 12.468 5.43608 9.96616 5.43608C7.46429 5.43608 5.43609 7.46426 5.43609 9.96615Z" stroke="#B2A074" stroke-width="1.81203" stroke-linecap="round" stroke-linejoin="round"/>
</svg>
