<svg width="28" height="29" viewBox="0 0 28 29" fill="none" xmlns="http://www.w3.org/2000/svg">
<path d="M20.316 16.8648C19.9596 16.696 18.2525 15.8519 17.9336 15.7205C17.6147 15.5892 17.3896 15.5517 17.1458 15.9081C16.9019 16.2646 16.2453 17.0337 16.039 17.2775C15.8326 17.5214 15.645 17.5402 15.2886 17.2775C14.2649 16.8667 13.3194 16.2829 12.4935 15.5517C11.7459 14.8478 11.1129 14.0313 10.6176 13.1318C10.4113 12.7941 10.6176 12.6065 10.7677 12.419C10.9178 12.2314 11.1054 12.025 11.2929 11.8187C11.4301 11.6402 11.5436 11.4447 11.6306 11.2371C11.6771 11.1406 11.7013 11.0348 11.7013 10.9276C11.7013 10.8204 11.6771 10.7146 11.6306 10.6181C11.6306 10.4493 10.8427 8.74218 10.5426 8.0481C10.2424 7.35401 9.97981 7.44781 9.77346 7.44781H9.0231C8.66565 7.46175 8.32832 7.61691 8.08514 7.87927C7.69263 8.25383 7.38171 8.70544 7.17189 9.20578C6.96207 9.70613 6.85787 10.2444 6.86581 10.7869C6.96176 12.1188 7.45148 13.392 8.27273 14.4449C9.77978 16.6837 11.8416 18.4934 14.2569 19.6975C15.0823 20.0539 15.7201 20.2602 16.2266 20.4291C16.9378 20.644 17.6896 20.689 18.4214 20.5604C18.9074 20.4618 19.368 20.2644 19.7746 19.9804C20.1812 19.6964 20.5251 19.332 20.785 18.9096C21.0013 18.388 21.0726 17.8176 20.9914 17.2588C20.8976 17.1275 20.6725 17.0337 20.316 16.8648Z" fill="#B2A074"/>
<path d="M23.824 4.08995C22.5267 2.78035 20.9802 1.7438 19.2759 1.04144C17.5715 0.339085 15.7438 -0.0148623 13.9004 0.000478125C11.4586 0.0132566 9.06278 0.666484 6.95237 1.89492C4.84195 3.12335 3.09077 4.884 1.87372 7.00101C0.656682 9.11802 0.0163763 11.5173 0.0167587 13.9592C0.0171411 16.4011 0.658198 18.8002 1.8759 20.9168L0 28.139L7.39106 26.2631C9.43436 27.375 11.7243 27.9555 14.0505 27.9514H13.9004C16.6729 27.9695 19.3879 27.1614 21.6992 25.6303C24.0105 24.0991 25.8135 21.9143 26.8781 19.3544C27.9427 16.7944 28.2208 13.9754 27.6769 11.2568C27.1329 8.53819 25.7916 6.04318 23.824 4.08995ZM13.9004 25.5503C11.8192 25.5519 9.77671 24.9878 7.99135 23.9183L7.57865 23.6744L3.18904 24.8187L4.3521 20.5416L4.08947 20.1102C2.59129 17.6974 2.03087 14.8187 2.51455 12.0202C2.99823 9.22163 4.49235 6.69799 6.71342 4.92807C8.93449 3.15816 11.728 2.26511 14.5639 2.41836C17.3998 2.57162 20.0808 3.76053 22.0981 5.7595C23.1797 6.83232 24.0369 8.10965 24.6198 9.51707C25.2028 10.9245 25.4998 12.4338 25.4935 13.9572C25.4886 17.0304 24.2656 19.9762 22.0925 22.1493C19.9195 24.3223 16.9736 25.5453 13.9004 25.5503Z" fill="#B2A074"/>
</svg>
