<svg width="26" height="21" viewBox="0 0 26 21" fill="none" xmlns="http://www.w3.org/2000/svg">
<path d="M23.4108 4.78283C23.9669 4.36576 24.0796 3.57683 23.6626 3.02073C23.2455 2.46462 22.4566 2.35191 21.9005 2.76899L22.6557 3.77591L23.4108 4.78283ZM14.852 9.62855L15.6072 10.6355L15.6072 10.6355L14.852 9.62855ZM10.3209 9.62855L9.56573 10.6355L9.56574 10.6355L10.3209 9.62855ZM3.27249 2.76893C2.71639 2.35185 1.92747 2.46455 1.51039 3.02066C1.09331 3.57676 1.20601 4.36569 1.76212 4.78276L2.51731 3.77585L3.27249 2.76893ZM22.6557 3.77591L21.9005 2.76899L14.0969 8.62163L14.852 9.62855L15.6072 10.6355L23.4108 4.78283L22.6557 3.77591ZM14.852 9.62855L14.0969 8.62162C13.2018 9.29292 11.9712 9.29292 11.0761 8.62162L10.3209 9.62855L9.56574 10.6355C11.3559 11.978 13.8171 11.978 15.6072 10.6355L14.852 9.62855ZM10.3209 9.62855L11.0761 8.62164L3.27249 2.76893L2.51731 3.77585L1.76212 4.78276L9.56573 10.6355L10.3209 9.62855ZM21.397 1.25854V-0.000101686H3.77593V1.25854V2.51719H21.397V1.25854ZM3.77593 1.25854V-0.000101686C1.69054 -0.000101686 -1.01328e-05 1.69044 -1.01328e-05 3.77584H1.25864H2.51728C2.51728 3.08071 3.0808 2.51719 3.77593 2.51719V1.25854ZM1.25864 3.77584H-1.01328e-05V16.3623H1.25864H2.51728V3.77584H1.25864ZM1.25864 16.3623H-1.01328e-05C-1.01328e-05 18.4477 1.69054 20.1382 3.77593 20.1382V18.8796V17.621C3.0808 17.621 2.51728 17.0574 2.51728 16.3623H1.25864ZM3.77593 18.8796V20.1382H21.397V18.8796V17.621H3.77593V18.8796ZM21.397 18.8796V20.1382C23.4824 20.1382 25.1729 18.4477 25.1729 16.3623H23.9143H22.6556C22.6556 17.0574 22.0921 17.621 21.397 17.621V18.8796ZM23.9143 16.3623H25.1729V3.77584H23.9143H22.6556V16.3623H23.9143ZM23.9143 3.77584H25.1729C25.1729 1.69044 23.4824 -0.000101686 21.397 -0.000101686V1.25854V2.51719C22.0921 2.51719 22.6556 3.08071 22.6556 3.77584H23.9143Z" fill="#B2A074"/>
</svg>
