<svg width="32" height="32" viewBox="0 0 32 32" fill="none" xmlns="http://www.w3.org/2000/svg">
<path d="M15.6345 7.60676C14.0467 7.60676 12.4946 8.07759 11.1745 8.95968C9.85438 9.84177 8.82544 11.0955 8.21784 12.5624C7.61024 14.0293 7.45127 15.6435 7.76103 17.2006C8.07076 18.7578 8.83533 20.1883 9.95804 21.311C11.0807 22.4335 12.5111 23.1981 14.0683 23.5079C15.6256 23.8176 17.2396 23.6587 18.7065 23.0511C20.1735 22.4435 21.4271 21.4146 22.3092 20.0945C23.1915 18.7743 23.6622 17.2222 23.6622 15.6345C23.6647 14.5795 23.4589 13.5345 23.0564 12.5595C22.6538 11.5842 22.0627 10.6982 21.3167 9.95228C20.5707 9.20631 19.6847 8.6151 18.7097 8.21258C17.7344 7.81007 16.6894 7.60419 15.6345 7.60676ZM15.6345 20.8623C14.6004 20.8623 13.5897 20.5557 12.73 19.9812C11.8704 19.4069 11.2003 18.5904 10.8046 17.6351C10.4089 16.6798 10.3054 15.6288 10.5071 14.6145C10.7088 13.6005 11.2067 12.6689 11.9378 11.9378C12.6689 11.2067 13.6005 10.7088 14.6145 10.5071C15.6288 10.3054 16.6798 10.4089 17.6351 10.8046C18.5904 11.2003 19.4069 11.8704 19.9812 12.73C20.5557 13.5897 20.8623 14.6004 20.8623 15.6345C20.8623 17.0209 20.3115 18.3508 19.3311 19.3311C18.3508 20.3115 17.0209 20.8623 15.6345 20.8623ZM25.8747 7.2739C25.8747 7.66117 25.76 8.03972 25.5448 8.3617C25.3296 8.68369 25.0238 8.93466 24.666 9.08284C24.3083 9.23104 23.9146 9.26981 23.5347 9.19427C23.1549 9.11871 22.8062 8.93223 22.5322 8.65841C22.2585 8.38459 22.0719 8.03571 21.9963 7.6559C21.9208 7.27607 21.9595 6.8824 22.1077 6.52462C22.256 6.16686 22.507 5.86106 22.8289 5.64592C23.151 5.43075 23.5294 5.31592 23.9167 5.31592C24.436 5.31592 24.9341 5.52221 25.3012 5.88941C25.6685 6.25659 25.8747 6.75462 25.8747 7.2739ZM31.1808 9.23188C31.2378 6.79778 30.3299 4.43992 28.655 2.67264C26.8972 0.976426 24.5382 0.0469132 22.0958 0.0881091C19.5504 -0.0293697 11.7185 -0.0293697 9.17314 0.0881091C6.73978 0.0354199 4.38349 0.942787 2.6139 2.6139C0.939126 4.38118 0.0311711 6.73904 0.0881091 9.17314C-0.0293697 11.7185 -0.0293697 19.5504 0.0881091 22.0958C0.0311711 24.53 0.939126 26.8878 2.6139 28.655C4.38349 30.3262 6.73978 31.2335 9.17314 31.1808C11.7577 31.3375 19.5113 31.3375 22.0958 31.1808C24.53 31.2378 26.8878 30.3299 28.655 28.655C30.3299 26.8878 31.2378 24.53 31.1808 22.0958C31.2983 19.5504 31.2983 11.7185 31.1808 9.17314V9.23188ZM27.8523 24.8957C27.5864 25.5693 27.1852 26.1807 26.6732 26.6927C26.1612 27.2048 25.5497 27.6059 24.8761 27.8718C21.8366 28.4865 18.7292 28.6971 15.6345 28.4984C12.5463 28.6973 9.44532 28.4866 6.41239 27.8718C5.73898 27.6059 5.12733 27.2048 4.61539 26.6927C4.10344 26.1807 3.70211 25.5693 3.43626 24.8957C2.6139 22.8202 2.79012 17.9253 2.79012 15.654C2.79012 13.3828 2.6139 8.46827 3.43626 6.41239C3.69461 5.73232 4.09308 5.11419 4.6058 4.59808C5.11852 4.082 5.73403 3.67948 6.41239 3.41668C9.44532 2.80183 12.5463 2.59115 15.6345 2.79012C18.7292 2.59149 21.8366 2.80216 24.8761 3.41668C25.5497 3.68253 26.1612 4.08386 26.6732 4.59581C27.1852 5.10775 27.5864 5.7194 27.8523 6.39281C28.6746 8.46827 28.4788 13.3632 28.4788 15.6345C28.4788 17.9057 28.6746 22.8202 27.8523 24.8761V24.8957Z" fill="#B2A074"/>
</svg>
